{
    "asset" : {
        "generator" : "Khronos glTF Blender I/O v1.7.33",
        "version" : "2.0"
    },
    "scene" : 0,
    "scenes" : [
        {
            "name" : "Scene",
            "nodes" : [
                0,
                1
            ]
        }
    ],
    "nodes" : [
        {
            "mesh" : 0,
            "name" : "Unnamed Copy",
            "rotation" : [
                0,
                0.8400935530662537,
                0,
                0.5424415469169617
            ],
            "scale" : [
                0.03999999910593033,
                0.03999999910593033,
                0.03999999910593033
            ]
        },
        {
            "mesh" : 1,
            "name" : "Unnamed Copy.001",
            "rotation" : [
                0,
                0.8400935530662537,
                0,
                0.5424415469169617
            ],
            "scale" : [
                0.03999999910593033,
                0.03999999910593033,
                0.03999999910593033
            ]
        }
    ],
    "materials" : [
        {
            "doubleSided" : true,
            "name" : "Material.001",
            "pbrMetallicRoughness" : {
                "baseColorFactor" : [
                    0,
                    0.8000000715255737,
                    0.016174592077732086,
                    1
                ],
                "metallicFactor" : 0,
                "roughnessFactor" : 0.4000000059604645
            }
        }
    ],
    "meshes" : [
        {
            "name" : "Unnamed Copy",
            "primitives" : [
                {
                    "attributes" : {
                        "POSITION" : 0,
                        "NORMAL" : 1
                    },
                    "indices" : 2,
                    "material" : 0
                }
            ]
        },
        {
            "name" : "Unnamed Copy.001",
            "primitives" : [
                {
                    "attributes" : {
                        "POSITION" : 3,
                        "NORMAL" : 4
                    },
                    "indices" : 5,
                    "material" : 0
                }
            ]
        }
    ],
    "accessors" : [
        {
            "bufferView" : 0,
            "componentType" : 5126,
            "count" : 922484,
            "max" : [
                12.436370849609375,
                39.98525619506836,
                13.48308277130127
            ],
            "min" : [
                -12.436362266540527,
                -0.016666734591126442,
                -12.61572265625
            ],
            "type" : "VEC3"
        },
        {
            "bufferView" : 1,
            "componentType" : 5126,
            "count" : 922484,
            "type" : "VEC3"
        },
        {
            "bufferView" : 2,
            "componentType" : 5125,
            "count" : 924495,
            "type" : "SCALAR"
        },
        {
            "bufferView" : 3,
            "componentType" : 5126,
            "count" : 26472,
            "max" : [
                12.693198204040527,
                2.497344732284546,
                12.693185806274414
            ],
            "min" : [
                -12.69318962097168,
                -0.01227417029440403,
                -12.693196296691895
            ],
            "type" : "VEC3"
        },
        {
            "bufferView" : 4,
            "componentType" : 5126,
            "count" : 26472,
            "type" : "VEC3"
        },
        {
            "bufferView" : 5,
            "componentType" : 5123,
            "count" : 26679,
            "type" : "SCALAR"
        }
    ],
    "bufferViews" : [
        {
            "buffer" : 0,
            "byteLength" : 11069808,
            "byteOffset" : 0
        },
        {
            "buffer" : 0,
            "byteLength" : 11069808,
            "byteOffset" : 11069808
        },
        {
            "buffer" : 0,
            "byteLength" : 3697980,
            "byteOffset" : 22139616
        },
        {
            "buffer" : 0,
            "byteLength" : 317664,
            "byteOffset" : 25837596
        },
        {
            "buffer" : 0,
            "byteLength" : 317664,
            "byteOffset" : 26155260
        },
        {
            "buffer" : 0,
            "byteLength" : 53358,
            "byteOffset" : 26472924
        }
    ],
    "buffers" : [
        {
            "byteLength" : 26526284,
            "uri" : "scene.bin"
        }
    ]
}
